# xmcd
#
# Track frame offsets:
#	150
#	16734
#	32249
#	44183
#	59640
#	73612
#	91260
#	108543
#	126621
#	141084
#	159889
#	174061
#	186508
#	203202
#
# Disc length: 2941 seconds
#
# Revision: 0
# Processed by: cddbd v1.5.2PL0 Copyright (c) Steve Scherf et al.
# Submitted via: dBpowerAMP V4.0
#
DISCID=cc0b7b0e
DTITLE=Sherrie Austin - Love In The Real World
DYEAR=1999
DGENRE=Country
TTITLE0=Never Been Kissed
TTITLE1=Good Love Comin' On
TTITLE2=Little Bird
TTITLE3=That's No Way To Break A Heart
TTITLE4=Sarah
TTITLE5=All The Love A Heart Can Hold
TTITLE6=Dreaming Out loud
TTITLE7=Heart To Heart
TTITLE8=Love In The Real World
TTITLE9=Heart Hold On
TTITLE10=Tell Me Everything
TTITLE11=Favorite Waste Of Time
TTITLE12=All That Matters
TTITLE13=Wish
EXTD=Love In The Real World
EXTT0=
EXTT1=
EXTT2=
EXTT3=
EXTT4=
EXTT5=
EXTT6=
EXTT7=
EXTT8=
EXTT9=
EXTT10=
EXTT11=
EXTT12=
EXTT13=
PLAYORDER=
